<mxfile host="app.diagrams.net" modified="2025-05-04T12:10:00.000Z" agent="Claude AI Assistant" etag="HkYjPD89u_MuTi2w7v5q" version="21.6.6">
  <diagram id="R2lEEEUBdFMjLlhIrx00" name="商品管理システム ER図">
    <mxGraphModel dx="1422" dy="800" grid="1" gridSize="10" guides="1" tooltips="1" connect="1" arrows="1" fold="1" page="1" pageScale="1" pageWidth="1169" pageHeight="827" math="0" shadow="0" extFonts="Permanent Marker^https://fonts.googleapis.com/css?family=Permanent+Marker">
      <root>
        <mxCell id="0" />
        <mxCell id="1" parent="0" />
        
        <!-- 商品テーブル -->
        <mxCell id="products" value="商品（products）" style="shape=table;startSize=30;container=1;collapsible=1;childLayout=tableLayout;fixedRows=1;rowLines=0;fontStyle=1;align=center;resizeLast=1;fillColor=#dae8fc;strokeColor=#6c8ebf;" parent="1" vertex="1">
          <mxGeometry x="360" y="80" width="280" height="330" as="geometry" />
        </mxCell>
        <mxCell id="products-pk" value="PK" style="shape=partialRectangle;connectable=0;fillColor=#dae8fc;top=0;left=0;bottom=0;right=0;fontStyle=1;overflow=hidden;strokeColor=#6c8ebf;" parent="products" vertex="1">
          <mxGeometry y="30" width="30" height="30" as="geometry" />
        </mxCell>
        <mxCell id="products-id" value="id INT AUTO_INCREMENT" style="shape=partialRectangle;connectable=0;fillColor=#dae8fc;top=0;left=0;bottom=0;right=0;align=left;spacingLeft=6;fontStyle=1;overflow=hidden;strokeColor=#6c8ebf;" parent="products" vertex="1">
          <mxGeometry x="30" y="30" width="250" height="30" as="geometry" />
        </mxCell>
        <mxCell id="products-code-row" value="" style="shape=partialRectangle;connectable=0;fillColor=none;top=0;left=0;bottom=0;right=0;overflow=hidden;" parent="products" vertex="1">
          <mxGeometry y="60" width="30" height="30" as="geometry" />
        </mxCell>
        <mxCell id="products-code" value="商品コード VARCHAR(50) NOT NULL UNIQUE" style="shape=partialRectangle;connectable=0;fillColor=none;top=0;left=0;bottom=0;right=0;align=left;spacingLeft=6;overflow=hidden;" parent="products" vertex="1">
          <mxGeometry x="30" y="60" width="250" height="30" as="geometry" />
        </mxCell>
        <mxCell id="products-name-row" value="" style="shape=partialRectangle;connectable=0;fillColor=none;top=0;left=0;bottom=0;right=0;overflow=hidden;" parent="products" vertex="1">
          <mxGeometry y="90" width="30" height="30" as="geometry" />
        </mxCell>
        <mxCell id="products-name" value="商品名 VARCHAR(100) NOT NULL" style="shape=partialRectangle;connectable=0;fillColor=none;top=0;left=0;bottom=0;right=0;align=left;spacingLeft=6;overflow=hidden;" parent="products" vertex="1">
          <mxGeometry x="30" y="90" width="250" height="30" as="geometry" />
        </mxCell>
        <mxCell id="products-desc-row" value="" style="shape=partialRectangle;connectable=0;fillColor=none;top=0;left=0;bottom=0;right=0;overflow=hidden;" parent="products" vertex="1">
          <mxGeometry y="120" width="30" height="30" as="geometry" />
        </mxCell>
        <mxCell id="products-desc" value="説明 TEXT" style="shape=partialRectangle;connectable=0;fillColor=none;top=0;left=0;bottom=0;right=0;align=left;spacingLeft=6;overflow=hidden;" parent="products" vertex="1">
          <mxGeometry x="30" y="120" width="250" height="30" as="geometry" />
        </mxCell>
        <mxCell id="products-price-row" value="" style="shape=partialRectangle;connectable=0;fillColor=none;top=0;left=0;bottom=0;right=0;overflow=hidden;" parent="products" vertex="1">
          <mxGeometry y="150" width="30" height="30" as="geometry" />
        </mxCell>
        <mxCell id="products-price" value="価格 DECIMAL(10,2) NOT NULL" style="shape=partialRectangle;connectable=0;fillColor=none;top=0;left=0;bottom=0;right=0;align=left;spacingLeft=6;overflow=hidden;" parent="products" vertex="1">
          <mxGeometry x="30" y="150" width="250" height="30" as="geometry" />
        </mxCell>
        <mxCell id="products-category-row" value="FK" style="shape=partialRectangle;connectable=0;fillColor=none;top=0;left=0;bottom=0;right=0;overflow=hidden;" parent="products" vertex="1">
          <mxGeometry y="180" width="30" height="30" as="geometry" />
        </mxCell>
        <mxCell id="products-category" value="カテゴリID INT NOT NULL" style="shape=partialRectangle;connectable=0;fillColor=none;top=0;left=0;bottom=0;right=0;align=left;spacingLeft=6;overflow=hidden;" parent="products" vertex="1">
          <mxGeometry x="30" y="180" width="250" height="30" as="geometry" />
        </mxCell>
        <mxCell id="products-image-row" value="" style="shape=partialRectangle;connectable=0;fillColor=none;top=0;left=0;bottom=0;right=0;overflow=hidden;" parent="products" vertex="1">
          <mxGeometry y="210" width="30" height="30" as="geometry" />
        </mxCell>
        <mxCell id="products-image" value="画像パス VARCHAR(255)" style="shape=partialRectangle;connectable=0;fillColor=none;top=0;left=0;bottom=0;right=0;align=left;spacingLeft=6;overflow=hidden;" parent="products" vertex="1">
          <mxGeometry x="30" y="210" width="250" height="30" as="geometry" />
        </mxCell>
        <mxCell id="products-created-row" value="" style="shape=partialRectangle;connectable=0;fillColor=none;top=0;left=0;bottom=0;right=0;overflow=hidden;" parent="products" vertex="1">
          <mxGeometry y="240" width="30" height="30" as="geometry" />
        </mxCell>
        <mxCell id="products-created" value="作成日時 TIMESTAMP NOT NULL" style="shape=partialRectangle;connectable=0;fillColor=none;top=0;left=0;bottom=0;right=0;align=left;spacingLeft=6;overflow=hidden;" parent="products" vertex="1">
          <mxGeometry x="30" y="240" width="250" height="30" as="geometry" />
        </mxCell>
        <mxCell id="products-updated-row" value="" style="shape=partialRectangle;connectable=0;fillColor=none;top=0;left=0;bottom=0;right=0;overflow=hidden;" parent="products" vertex="1">
          <mxGeometry y="270" width="30" height="30" as="geometry" />
        </mxCell>
        <mxCell id="products-updated" value="更新日時 TIMESTAMP" style="shape=partialRectangle;connectable=0;fillColor=none;top=0;left=0;bottom=0;right=0;align=left;spacingLeft=6;overflow=hidden;" parent="products" vertex="1">
          <mxGeometry x="30" y="270" width="250" height="30" as="geometry" />
        </mxCell>
        <mxCell id="products-deleted-row" value="" style="shape=partialRectangle;connectable=0;fillColor=none;top=0;left=0;bottom=0;right=0;overflow=hidden;" parent="products" vertex="1">
          <mxGeometry y="300" width="30" height="30" as="geometry" />
        </mxCell>
        <mxCell id="products-deleted" value="削除日時 TIMESTAMP NULL" style="shape=partialRectangle;connectable=0;fillColor=none;top=0;left=0;bottom=0;right=0;align=left;spacingLeft=6;overflow=hidden;" parent="products" vertex="1">
          <mxGeometry x="30" y="300" width="250" height="30" as="geometry" />
        </mxCell>
        
        <!-- カテゴリテーブル -->
        <mxCell id="categories" value="カテゴリ（categories）" style="shape=table;startSize=30;container=1;collapsible=1;childLayout=tableLayout;fixedRows=1;rowLines=0;fontStyle=1;align=center;resizeLast=1;fillColor=#d5e8d4;strokeColor=#82b366;" parent="1" vertex="1">
          <mxGeometry x="80" y="80" width="200" height="180" as="geometry" />
        </mxCell>
        <mxCell id="categories-pk" value="PK" style="shape=partialRectangle;connectable=0;fillColor=#d5e8d4;top=0;left=0;bottom=0;right=0;fontStyle=1;overflow=hidden;strokeColor=#82b366;" parent="categories" vertex="1">
          <mxGeometry y="30" width="30" height="30" as="geometry" />
        </mxCell>
        <mxCell id="categories-id" value="id INT AUTO_INCREMENT" style="shape=partialRectangle;connectable=0;fillColor=#d5e8d4;top=0;left=0;bottom=0;right=0;align=left;spacingLeft=6;fontStyle=1;overflow=hidden;strokeColor=#82b366;" parent="categories" vertex="1">
          <mxGeometry x="30" y="30" width="170" height="30" as="geometry" />
        </mxCell>
        <mxCell id="categories-name-row" value="" style="shape=partialRectangle;connectable=0;fillColor=none;top=0;left=0;bottom=0;right=0;overflow=hidden;" parent="categories" vertex="1">
          <mxGeometry y="60" width="30" height="30" as="geometry" />
        </mxCell>
        <mxCell id="categories-name" value="カテゴリ名 VARCHAR(50) NOT NULL" style="shape=partialRectangle;connectable=0;fillColor=none;top=0;left=0;bottom=0;right=0;align=left;spacingLeft=6;overflow=hidden;" parent="categories" vertex="1">
          <mxGeometry x="30" y="60" width="170" height="30" as="geometry" />
        </mxCell>
        <mxCell id="categories-parent-row" value="FK" style="shape=partialRectangle;connectable=0;fillColor=none;top=0;left=0;bottom=0;right=0;overflow=hidden;" parent="categories" vertex="1">
          <mxGeometry y="90" width="30" height="30" as="geometry" />
        </mxCell>
        <mxCell id="categories-parent" value="親カテゴリID INT NULL" style="shape=partialRectangle;connectable=0;fillColor=none;top=0;left=0;bottom=0;right=0;align=left;spacingLeft=6;overflow=hidden;" parent="categories" vertex="1">
          <mxGeometry x="30" y="90" width="170" height="30" as="geometry" />
        </mxCell>
        <mxCell id="categories-created-row" value="" style="shape=partialRectangle;connectable=0;fillColor=none;top=0;left=0;bottom=0;right=0;overflow=hidden;" parent="categories" vertex="1">
          <mxGeometry y="120" width="30" height="30" as="geometry" />
        </mxCell>
        <mxCell id="categories-created" value="作成日時 TIMESTAMP" style="shape=partialRectangle;connectable=0;fillColor=none;top=0;left=0;bottom=0;right=0;align=left;spacingLeft=6;overflow=hidden;" parent="categories" vertex="1">
          <mxGeometry x="30" y="120" width="170" height="30" as="geometry" />
        </mxCell>
        <mxCell id="categories-updated-row" value="" style="shape=partialRectangle;connectable=0;fillColor=none;top=0;left=0;bottom=0;right=0;overflow=hidden;" parent="categories" vertex="1">
          <mxGeometry y="150" width="30" height="30" as="geometry" />
        </mxCell>
        <mxCell id="categories-updated" value="更新日時 TIMESTAMP" style="shape=partialRectangle;connectable=0;fillColor=none;top=0;left=0;bottom=0;right=0;align=left;spacingLeft=6;overflow=hidden;" parent="categories" vertex="1">
          <mxGeometry x="30" y="150" width="170" height="30" as="geometry" />
        </mxCell>
        
        <!-- 在庫テーブル -->
        <mxCell id="inventories" value="在庫（inventories）" style="shape=table;startSize=30;container=1;collapsible=1;childLayout=tableLayout;fixedRows=1;rowLines=0;fontStyle=1;align=center;resizeLast=1;fillColor=#fff2cc;strokeColor=#d6b656;" parent="1" vertex="1">
          <mxGeometry x="700" y="80" width="250" height="180" as="geometry" />
        </mxCell>
        <mxCell id="inventories-pk" value="PK" style="shape=partialRectangle;connectable=0;fillColor=#fff2cc;top=0;left=0;bottom=0;right=0;fontStyle=1;overflow=hidden;strokeColor=#d6b656;" parent="inventories" vertex="1">
          <mxGeometry y="30" width="30" height="30" as="geometry" />
        </mxCell>
        <mxCell id="inventories-id" value="id INT AUTO_INCREMENT" style="shape=partialRectangle;connectable=0;fillColor=#fff2cc;top=0;left=0;bottom=0;right=0;align=left;spacingLeft=6;fontStyle=1;overflow=hidden;strokeColor=#d6b656;" parent="inventories" vertex="1">
          <mxGeometry x="30" y="30" width="220" height="30" as="geometry" />
        </mxCell>
        <mxCell id="inventories-product-row" value="FK" style="shape=partialRectangle;connectable=0;fillColor=none;top=0;left=0;bottom=0;right=0;overflow=hidden;" parent="inventories" vertex="1">
          <mxGeometry y="60" width="30" height="30" as="geometry" />
        </mxCell>
        <mxCell id="inventories-product" value="商品ID INT NOT NULL" style="shape=partialRectangle;connectable=0;fillColor=none;top=0;left=0;bottom=0;right=0;align=left;spacingLeft=6;overflow=hidden;" parent="inventories" vertex="1">
          <mxGeometry x="30" y="60" width="220" height="30" as="geometry" />
        </mxCell>
        <mxCell id="inventories-qty-row" value="" style="shape=partialRectangle;connectable=0;fillColor=none;top=0;left=0;bottom=0;right=0;overflow=hidden;" parent="inventories" vertex="1">
          <mxGeometry y="90" width="30" height="30" as="geometry" />
        </mxCell>
        <mxCell id="inventories-qty" value="数量 INT NOT NULL DEFAULT 0" style="shape=partialRectangle;connectable=0;fillColor=none;top=0;left=0;bottom=0;right=0;align=left;spacingLeft=6;overflow=hidden;" parent="inventories" vertex="1">
          <mxGeometry x="30" y="90" width="220" height="30" as="geometry" />
        </mxCell>
        <mxCell id="inventories-alert-row" value="" style="shape=partialRectangle;connectable=0;fillColor=none;top=0;left=0;bottom=0;right=0;overflow=hidden;" parent="inventories" vertex="1">
          <mxGeometry y="120" width="30" height="30" as="geometry" />
        </mxCell>
        <mxCell id="inventories-alert" value="警告閾値 INT DEFAULT 10" style="shape=partialRectangle;connectable=0;fillColor=none;top=0;left=0;bottom=0;right=0;align=left;spacingLeft=6;overflow=hidden;" parent="inventories" vertex="1">
          <mxGeometry x="30" y="120" width="220" height="30" as="geometry" />
        </mxCell>
        <mxCell id="inventories-created-row" value="" style="shape=partialRectangle;connectable=0;fillColor=none;top=0;left=0;bottom=0;right=0;overflow=hidden;" parent="inventories" vertex="1">
          <mxGeometry y="150" width="30" height="30" as="geometry" />
        </mxCell>
        <mxCell id="inventories-created" value="更新日時 TIMESTAMP" style="shape=partialRectangle;connectable=0;fillColor=none;top=0;left=0;bottom=0;right=0;align=left;spacingLeft=6;overflow=hidden;" parent="inventories" vertex="1">
          <mxGeometry x="30" y="150" width="220" height="30" as="geometry" />
        </mxCell>
        
        <!-- 在庫履歴テーブル -->
        <mxCell id="inventory_histories" value="在庫履歴（inventory_histories）" style="shape=table;startSize=30;container=1;collapsible=1;childLayout=tableLayout;fixedRows=1;rowLines=0;fontStyle=1;align=center;resizeLast=1;fillColor=#ffe6cc;strokeColor=#d79b00;" parent="1" vertex="1">
          <mxGeometry x="700" y="320" width="250" height="210" as="geometry" />
        </mxCell>
        <mxCell id="inventory_histories-pk" value="PK" style="shape=partialRectangle;connectable=0;fillColor=#ffe6cc;top=0;left=0;bottom=0;right=0;fontStyle=1;overflow=hidden;strokeColor=#d79b00;" parent="inventory_histories" vertex="1">
          <mxGeometry y="30" width="30" height="30" as="geometry" />
        </mxCell>
        <mxCell id="inventory_histories-id" value="id INT AUTO_INCREMENT" style="shape=partialRectangle;connectable=0;fillColor=#ffe6cc;top=0;left=0;bottom=0;right=0;align=left;spacingLeft=6;fontStyle=1;overflow=hidden;strokeColor=#d79b00;" parent="inventory_histories" vertex="1">
          <mxGeometry x="30" y="30" width="220" height="30" as="geometry" />
        </mxCell>
        <mxCell id="inventory_histories-product-row" value="FK" style="shape=partialRectangle;connectable=0;fillColor=none;top=0;left=0;bottom=0;right=0;overflow=hidden;" parent="inventory_histories" vertex="1">
          <mxGeometry y="60" width="30" height="30" as="geometry" />
        </mxCell>
        <mxCell id="inventory_histories-product" value="商品ID INT NOT NULL" style="shape=partialRectangle;connectable=0;fillColor=none;top=0;left=0;bottom=0;right=0;align=left;spacingLeft=6;overflow=hidden;" parent="inventory_histories" vertex="1">
          <mxGeometry x="30" y="60" width="220" height="30" as="geometry" />
        </mxCell>
        <mxCell id="inventory_histories-qty-row" value="" style="shape=partialRectangle;connectable=0;fillColor=none;top=0;left=0;bottom=0;right=0;overflow=hidden;" parent="inventory_histories" vertex="1">
          <mxGeometry y="90" width="30" height="30" as="geometry" />
        </mxCell>
        <mxCell id="inventory_histories-qty" value="数量変化 INT NOT NULL" style="shape=partialRectangle;connectable=0;fillColor=none;top=0;left=0;bottom=0;right=0;align=left;spacingLeft=6;overflow=hidden;" parent="inventory_histories" vertex="1">
          <mxGeometry x="30" y="90" width="220" height="30" as="geometry" />
        </mxCell>
        <mxCell id="inventory_histories-reason-row" value="" style="shape=partialRectangle;connectable=0;fillColor=none;top=0;left=0;bottom=0;right=0;overflow=hidden;" parent="inventory_histories" vertex="1">
          <mxGeometry y="120" width="30" height="30" as="geometry" />
        </mxCell>
        <mxCell id="inventory_histories-reason" value="理由 VARCHAR(255)" style="shape=partialRectangle;connectable=0;fillColor=none;top=0;left=0;bottom=0;right=0;align=left;spacingLeft=6;overflow=hidden;" parent="inventory_histories" vertex="1">
          <mxGeometry x="30" y="120" width="220" height="30" as="geometry" />
        </mxCell>
        <mxCell id="inventory_histories-operated-row" value="FK" style="shape=partialRectangle;connectable=0;fillColor=none;top=0;left=0;bottom=0;right=0;overflow=hidden;" parent="inventory_histories" vertex="1">
          <mxGeometry y="150" width="30" height="30" as="geometry" />
        </mxCell>
        <mxCell id="inventory_histories-operated" value="操作者ID INT NOT NULL" style="shape=partialRectangle;connectable=0;fillColor=none;top=0;left=0;bottom=0;right=0;align=left;spacingLeft=6;overflow=hidden;" parent="inventory_histories" vertex="1">
          <mxGeometry x="30" y="150" width="220" height="30" as="geometry" />
        </mxCell>
        <mxCell id="inventory_histories-created-row" value="" style="shape=partialRectangle;connectable=0;fillColor=none;top=0;left=0;bottom=0;right=0;overflow=hidden;" parent="inventory_histories" vertex="1">
          <mxGeometry y="180" width="30" height="30" as="geometry" />
        </mxCell>
        <mxCell id="inventory_histories-created" value="作成日時 TIMESTAMP" style="shape=partialRectangle;connectable=0;fillColor=none;top=0;left=0;bottom=0;right=0;align=left;spacingLeft=6;overflow=hidden;" parent="inventory_histories" vertex="1">
          <mxGeometry x="30" y="180" width="220" height="30" as="geometry" />
        </mxCell>
        
        <!-- ユーザーテーブル -->
        <mxCell id="users" value="ユーザー（users）" style="shape=table;startSize=30;container=1;collapsible=1;childLayout=tableLayout;fixedRows=1;rowLines=0;fontStyle=1;align=center;resizeLast=1;fillColor=#e1d5e7;strokeColor=#9673a6;" parent="1" vertex="1">
          <mxGeometry x="360" y="440" width="280" height="300" as="geometry" />
        </mxCell>
        <mxCell id="users-pk" value="PK" style="shape=partialRectangle;connectable=0;fillColor=#e1d5e7;top=0;left=0;bottom=0;right=0;fontStyle=1;overflow=hidden;strokeColor=#9673a6;" parent="users" vertex="1">
          <mxGeometry y="30" width="30" height="30" as="geometry" />
        </mxCell>
        <mxCell id="users-id" value="id INT AUTO_INCREMENT" style="shape=partialRectangle;connectable=0;fillColor=#e1d5e7;top=0;left=0;bottom=0;right=0;align=left;spacingLeft=6;fontStyle=1;overflow=hidden;strokeColor=#9673a6;" parent="users" vertex="1">
          <mxGeometry x="30" y="30" width="250" height="30" as="geometry" />
        </mxCell>
        <mxCell id="users-username-row" value="" style="shape=partialRectangle;connectable=0;fillColor=none;top=0;left=0;bottom=0;right=0;overflow=hidden;" parent="users" vertex="1">
          <mxGeometry y="60" width="30" height="30" as="geometry" />
        </mxCell>
        <mxCell id="users-username" value="ユーザー名 VARCHAR(50) NOT NULL" style="shape=partialRectangle;connectable=0;fillColor=none;top=0;left=0;bottom=0;right=0;align=left;spacingLeft=6;overflow=hidden;" parent="users" vertex="1">
          <mxGeometry x="30" y="60" width="250" height="30" as="geometry" />
        </mxCell>
        <mxCell id="users-pass-row" value="" style="shape=partialRectangle;connectable=0;fillColor=none;top=0;left=0;bottom=0;right=0;overflow=hidden;" parent="users" vertex="1">
          <mxGeometry y="90" width="30" height="30" as="geometry" />
        </mxCell>
        <mxCell id="users-pass" value="パスワードハッシュ VARCHAR(255) NOT NULL" style="shape=partialRectangle;connectable=0;fillColor=none;top=0;left=0;bottom=0;right=0;align=left;spacingLeft=6;overflow=hidden;" parent="users" vertex="1">
          <mxGeometry x="30" y="90" width="250" height="30" as="geometry" />
        </mxCell>
        <mxCell id="users-email-row" value="" style="shape=partialRectangle;connectable=0;fillColor=none;top=0;left=0;bottom=0;right=0;overflow=hidden;" parent="users" vertex="1">
          <mxGeometry y="120" width="30" height="30" as="geometry" />
        </mxCell>
        <mxCell id="users-email" value="メール VARCHAR(100) NOT NULL UNIQUE" style="shape=partialRectangle;connectable=0;fillColor=none;top=0;left=0;bottom=0;right=0;align=left;spacingLeft=6;overflow=hidden;" parent="users" vertex="1">
          <mxGeometry x="30" y="120" width="250" height="30" as="geometry" />
        </mxCell>
        <mxCell id="users-role-row" value="" style="shape=partialRectangle;connectable=0;fillColor=none;top=0;left=0;bottom=0;right=0;overflow=hidden;" parent="users" vertex="1">
          <mxGeometry y="150" width="30" height="30" as="geometry" />
        </mxCell>
        <mxCell id="users-role" value="権限 ENUM('admin', 'product_mgr', 'inventory_mgr', 'viewer') NOT NULL" style="shape=partialRectangle;connectable=0;fillColor=none;top=0;left=0;bottom=0;right=0;align=left;spacingLeft=6;overflow=hidden;" parent="users" vertex="1">
          <mxGeometry x="30" y="150" width="250" height="30" as="geometry" />
        </mxCell>
        <mxCell id="users-last-login-row" value="" style="shape=partialRectangle;connectable=0;fillColor=none;top=0;left=0;bottom=0;right=0;overflow=hidden;" parent="users" vertex="1">
          <mxGeometry y="180" width="30" height="30" as="geometry" />
        </mxCell>
        <mxCell id="users-last-login" value="最終ログイン日時 TIMESTAMP NULL" style="shape=partialRectangle;connectable=0;fillColor=none;top=0;left=0;bottom=0;right=0;align=left;spacingLeft=6;overflow=hidden;" parent="users" vertex="1">
          <mxGeometry x="30" y="180" width="250" height="30" as="geometry" />
        </mxCell>
        <mxCell id="users-created-row" value="" style="shape=partialRectangle;connectable=0;fillColor=none;top=0;left=0;bottom=0;right=0;overflow=hidden;" parent="users" vertex="1">
          <mxGeometry y="210" width="30" height="30" as="geometry" />
        </mxCell>
        <mxCell id="users-created" value="作成日時 TIMESTAMP NOT NULL" style="shape=partialRectangle;connectable=0;fillColor=none;top=0;left=0;bottom=0;right=0;align=left;spacingLeft=6;overflow=hidden;" parent="users" vertex="1">
          <mxGeometry x="30" y="210" width="250" height="30" as="geometry" />
        </mxCell>
        <mxCell id="users-updated-row" value="" style="shape=partialRectangle;connectable=0;fillColor=none;top=0;left=0;bottom=0;right=0;overflow=hidden;" parent="users" vertex="1">
          <mxGeometry y="240" width="30" height="30" as="geometry" />
        </mxCell>
        <mxCell id="users-updated" value="更新日時 TIMESTAMP NULL" style="shape=partialRectangle;connectable=0;fillColor=none;top=0;left=0;bottom=0;right=0;align=left;spacingLeft=6;overflow=hidden;" parent="users" vertex="1">
          <mxGeometry x="30" y="240" width="250" height="30" as="geometry" />
        </mxCell>
        <mxCell id="users-deleted-row" value="" style="shape=partialRectangle;connectable=0;fillColor=none;top=0;left=0;bottom=0;right=0;overflow=hidden;" parent="users" vertex="1">
          <mxGeometry y="270" width="30" height="30" as="geometry" />
        </mxCell>
        <mxCell id="users-deleted" value="削除日時 TIMESTAMP NULL" style="shape=partialRectangle;connectable=0;fillColor=none;top=0;left=0;bottom=0;right=0;align=left;spacingLeft=6;overflow=hidden;" parent="users" vertex="1">
          <mxGeometry x="30" y="270" width="250" height="30" as="geometry" />
        </mxCell>
        
        <!-- リレーションシップ -->
        <!-- カテゴリ 自己参照（親子関係） -->
        <mxCell id="cat-self-rel" value="" style="edgeStyle=entityRelationEdgeStyle;fontSize=12;html=1;endArrow=ERoneToMany;startArrow=ERone;rounded=0;entryX=0;entryY=0.5;entryDx=0;entryDy=0;exitX=0;exitY=0.5;exitDx=0;exitDy=0;startFill=0;endFill=0;" parent="1" source="categories-pk" target="categories-parent-row" edge="1">
          <mxGeometry width="100" height="100" relative="1" as="geometry">
            <mxPoint x="40" y="120" as="sourcePoint" />
            <mxPoint x="40" y="220" as="targetPoint" />
            <Array as="points">
              <mxPoint x="60" y="160" />
            </Array>
          </mxGeometry>
        </mxCell>
        
        <!-- カテゴリと商品 -->
        <mxCell id="cat-prod-rel" value="" style="edgeStyle=entityRelationEdgeStyle;fontSize=12;html=1;endArrow=ERoneToMany;startArrow=ERone;rounded=0;entryX=0;entryY=0.5;entryDx=0;entryDy=0;exitX=1;exitY=0.5;exitDx=0;exitDy=0;startFill=0;endFill=0;" parent="1" source="categories-pk" target="products-category-row" edge="1">
          <mxGeometry width="100" height="100" relative="1" as="geometry">
            <mxPoint x="290" y="110" as="sourcePoint" />
            <mxPoint x="390" y="10" as="targetPoint" />
          </mxGeometry>
        </mxCell>
        
        <!-- 商品と在庫 -->
        <mxCell id="prod-inv-rel" value="" style="edgeStyle=entityRelationEdgeStyle;fontSize=12;html=1;endArrow=ERone;startArrow=ERone;rounded=0;entryX=0;entryY=0.5;entryDx=0;entryDy=0;exitX=1;exitY=0.5;exitDx=0;exitDy=0;startFill=0;endFill=0;" parent="1" source="products-pk" target="inventories-product-row" edge="1">
          <mxGeometry width="100" height="100" relative="1" as="geometry">
            <mxPoint x="620" y="110" as="sourcePoint" />
            <mxPoint x="720" y="10" as="targetPoint" />
          </mxGeometry>
        </mxCell>
        
        <!-- 商品と在庫履歴 -->
        <mxCell id="prod-invhist-rel" value="" style="edgeStyle=entityRelationEdgeStyle;fontSize=12;html=1;endArrow=ERoneToMany;startArrow=ERone;rounded=0;entryX=0;entryY=0.5;entryDx=0;entryDy=0;exitX=1;exitY=0.5;exitDx=0;exitDy=0;startFill=0;endFill=0;" parent="1" source="products-pk" target="inventory_histories-product-row" edge="1">
          <mxGeometry width="100" height="100" relative="1" as="geometry">
            <mxPoint x="620" y="345" as="sourcePoint" />
            <mxPoint x="720" y="245" as="targetPoint" />
          </mxGeometry>
        </mxCell>
        
        <!-- ユーザーと在庫履歴 -->
        <mxCell id="user-invhist-rel" value="" style="edgeStyle=entityRelationEdgeStyle;fontSize=12;html=1;endArrow=ERoneToMany;startArrow=ERone;rounded=0;entryX=0;entryY=0.5;entryDx=0;entryDy=0;exitX=1;exitY=0.5;exitDx=0;exitDy=0;startFill=0;endFill=0;" parent="1" source="users-pk" target="inventory_histories-operated-row" edge="1">
          <mxGeometry width="100" height="100" relative="1" as="geometry">
            <mxPoint x="620" y="470" as="sourcePoint" />
            <mxPoint x="720" y="370" as="targetPoint" />
          </mxGeometry>
        </mxCell>
      </root>
    </mxGraphModel>
  </diagram>
</mxfile>